<svg width="620" height="620" viewBox="0 0 620 620" fill="none" xmlns="http://www.w3.org/2000/svg">
<rect width="620" height="620" fill="#1F1F1F"/>
<mask id="mask0_638_20" style="mask-type:alpha" maskUnits="userSpaceOnUse" x="209" y="88" width="202" height="443">
<path d="M309.092 530.512C276.351 530.512 251.59 521.304 234.81 502.887C218.03 484.06 209.64 457.253 209.64 422.466V397.909H273.486V427.377C273.486 455.207 285.15 469.122 308.478 469.122C319.938 469.122 328.532 465.848 334.262 459.3C340.401 452.342 343.471 441.292 343.471 426.149C343.471 408.141 339.378 392.384 331.193 378.878C323.007 364.963 307.864 348.388 285.764 329.152C257.934 304.596 238.493 282.496 227.443 262.851C216.393 242.797 210.868 220.287 210.868 195.322C210.868 161.352 219.462 135.159 236.652 116.742C253.841 97.9156 278.806 88.5024 311.548 88.5024C343.88 88.5024 368.231 97.9156 384.602 116.742C401.382 135.159 409.772 161.761 409.772 196.549V214.353H345.926V192.252C345.926 177.518 343.061 166.877 337.332 160.329C331.602 153.371 323.212 149.893 312.162 149.893C289.652 149.893 278.397 163.603 278.397 191.024C278.397 206.576 282.49 221.105 290.675 234.611C299.27 248.117 314.617 264.488 336.718 283.724C364.957 308.28 384.398 330.585 395.039 350.639C405.68 370.693 411 394.226 411 421.238C411 456.435 402.201 483.447 384.602 502.273C367.413 521.099 342.243 530.512 309.092 530.512Z" fill="#E50914"/>
</mask>
<g mask="url(#mask0_638_20)">
<rect x="150.092" y="12.7871" width="327.415" height="552.512" fill="#E50914"/>
<rect x="278.723" y="124.941" width="67.3862" height="58.651" fill="url(#paint0_linear_638_20)"/>
<rect x="343.164" y="495.315" width="68.6341" height="58.651" transform="rotate(-180 343.164 495.315)" fill="url(#paint1_linear_638_20)"/>
</g>
<defs>
<linearGradient id="paint0_linear_638_20" x1="312.416" y1="132.272" x2="312.416" y2="183.592" gradientUnits="userSpaceOnUse">
<stop stop-color="#E50914"/>
<stop offset="1" stop-color="#5E0308"/>
</linearGradient>
<linearGradient id="paint1_linear_638_20" x1="377.481" y1="502.647" x2="377.481" y2="553.966" gradientUnits="userSpaceOnUse">
<stop stop-color="#E50914"/>
<stop offset="1" stop-color="#5E0308"/>
</linearGradient>
</defs>
</svg>
